<mxfile host="app.diagrams.net" modified="2022-01-29T18:55:40.326Z" agent="5.0 (Windows NT 10.0; Win64; x64) AppleWebKit/537.36 (KHTML, like Gecko) Chrome/97.0.4692.99 Safari/537.36 Edg/97.0.1072.69" etag="yyUpHP5zkG8aTYNECEjr" version="16.4.3" type="github">
  <diagram id="C5RBs43oDa-KdzZeNtuy" name="Page-1">
    <mxGraphModel dx="1038" dy="579" grid="1" gridSize="10" guides="1" tooltips="1" connect="1" arrows="1" fold="1" page="1" pageScale="1" pageWidth="827" pageHeight="1169" math="0" shadow="0">
      <root>
        <mxCell id="WIyWlLk6GJQsqaUBKTNV-0" />
        <mxCell id="WIyWlLk6GJQsqaUBKTNV-1" parent="WIyWlLk6GJQsqaUBKTNV-0" />
        <mxCell id="fei8BmdaWQKJ3FNzEUvH-0" value="Pokebola" style="rounded=0;whiteSpace=wrap;html=1;" vertex="1" parent="WIyWlLk6GJQsqaUBKTNV-1">
          <mxGeometry x="340" width="120" height="60" as="geometry" />
        </mxCell>
        <mxCell id="fei8BmdaWQKJ3FNzEUvH-2" value="" style="edgeStyle=orthogonalEdgeStyle;rounded=0;orthogonalLoop=1;jettySize=auto;html=1;" edge="1" parent="WIyWlLk6GJQsqaUBKTNV-1" source="fei8BmdaWQKJ3FNzEUvH-1" target="fei8BmdaWQKJ3FNzEUvH-0">
          <mxGeometry relative="1" as="geometry" />
        </mxCell>
        <mxCell id="fei8BmdaWQKJ3FNzEUvH-6" style="edgeStyle=orthogonalEdgeStyle;rounded=0;orthogonalLoop=1;jettySize=auto;html=1;exitX=0;exitY=0.75;exitDx=0;exitDy=0;entryX=0.5;entryY=0;entryDx=0;entryDy=0;" edge="1" parent="WIyWlLk6GJQsqaUBKTNV-1" source="fei8BmdaWQKJ3FNzEUvH-1" target="fei8BmdaWQKJ3FNzEUvH-3">
          <mxGeometry relative="1" as="geometry" />
        </mxCell>
        <mxCell id="fei8BmdaWQKJ3FNzEUvH-16" style="edgeStyle=orthogonalEdgeStyle;rounded=0;orthogonalLoop=1;jettySize=auto;html=1;exitX=1;exitY=0.75;exitDx=0;exitDy=0;entryX=0.25;entryY=0;entryDx=0;entryDy=0;" edge="1" parent="WIyWlLk6GJQsqaUBKTNV-1" source="fei8BmdaWQKJ3FNzEUvH-1" target="fei8BmdaWQKJ3FNzEUvH-5">
          <mxGeometry relative="1" as="geometry" />
        </mxCell>
        <mxCell id="fei8BmdaWQKJ3FNzEUvH-17" style="edgeStyle=orthogonalEdgeStyle;rounded=0;orthogonalLoop=1;jettySize=auto;html=1;exitX=0.5;exitY=1;exitDx=0;exitDy=0;entryX=0.5;entryY=0;entryDx=0;entryDy=0;" edge="1" parent="WIyWlLk6GJQsqaUBKTNV-1" source="fei8BmdaWQKJ3FNzEUvH-1" target="fei8BmdaWQKJ3FNzEUvH-4">
          <mxGeometry relative="1" as="geometry" />
        </mxCell>
        <mxCell id="fei8BmdaWQKJ3FNzEUvH-1" value="Pokemon" style="rounded=0;whiteSpace=wrap;html=1;" vertex="1" parent="WIyWlLk6GJQsqaUBKTNV-1">
          <mxGeometry x="340" y="90" width="120" height="60" as="geometry" />
        </mxCell>
        <mxCell id="fei8BmdaWQKJ3FNzEUvH-12" style="edgeStyle=orthogonalEdgeStyle;rounded=0;orthogonalLoop=1;jettySize=auto;html=1;exitX=0.25;exitY=1;exitDx=0;exitDy=0;entryX=0.25;entryY=0;entryDx=0;entryDy=0;" edge="1" parent="WIyWlLk6GJQsqaUBKTNV-1" source="fei8BmdaWQKJ3FNzEUvH-3" target="fei8BmdaWQKJ3FNzEUvH-7">
          <mxGeometry relative="1" as="geometry" />
        </mxCell>
        <mxCell id="fei8BmdaWQKJ3FNzEUvH-3" value="Blastoide" style="rounded=0;whiteSpace=wrap;html=1;" vertex="1" parent="WIyWlLk6GJQsqaUBKTNV-1">
          <mxGeometry x="40" y="160" width="120" height="60" as="geometry" />
        </mxCell>
        <mxCell id="fei8BmdaWQKJ3FNzEUvH-18" style="edgeStyle=orthogonalEdgeStyle;rounded=0;orthogonalLoop=1;jettySize=auto;html=1;exitX=0.5;exitY=1;exitDx=0;exitDy=0;entryX=0.5;entryY=0;entryDx=0;entryDy=0;" edge="1" parent="WIyWlLk6GJQsqaUBKTNV-1" source="fei8BmdaWQKJ3FNzEUvH-4" target="fei8BmdaWQKJ3FNzEUvH-9">
          <mxGeometry relative="1" as="geometry" />
        </mxCell>
        <mxCell id="fei8BmdaWQKJ3FNzEUvH-4" value="Raichu" style="rounded=0;whiteSpace=wrap;html=1;" vertex="1" parent="WIyWlLk6GJQsqaUBKTNV-1">
          <mxGeometry x="340" y="200" width="120" height="60" as="geometry" />
        </mxCell>
        <mxCell id="fei8BmdaWQKJ3FNzEUvH-14" style="edgeStyle=orthogonalEdgeStyle;rounded=0;orthogonalLoop=1;jettySize=auto;html=1;exitX=0.25;exitY=1;exitDx=0;exitDy=0;entryX=0.25;entryY=0;entryDx=0;entryDy=0;" edge="1" parent="WIyWlLk6GJQsqaUBKTNV-1" source="fei8BmdaWQKJ3FNzEUvH-5" target="fei8BmdaWQKJ3FNzEUvH-10">
          <mxGeometry relative="1" as="geometry" />
        </mxCell>
        <mxCell id="fei8BmdaWQKJ3FNzEUvH-5" value="Charizard" style="rounded=0;whiteSpace=wrap;html=1;" vertex="1" parent="WIyWlLk6GJQsqaUBKTNV-1">
          <mxGeometry x="660" y="160" width="120" height="60" as="geometry" />
        </mxCell>
        <mxCell id="fei8BmdaWQKJ3FNzEUvH-13" style="edgeStyle=orthogonalEdgeStyle;rounded=0;orthogonalLoop=1;jettySize=auto;html=1;exitX=0.75;exitY=1;exitDx=0;exitDy=0;entryX=0.75;entryY=0;entryDx=0;entryDy=0;" edge="1" parent="WIyWlLk6GJQsqaUBKTNV-1" source="fei8BmdaWQKJ3FNzEUvH-7" target="fei8BmdaWQKJ3FNzEUvH-8">
          <mxGeometry relative="1" as="geometry" />
        </mxCell>
        <mxCell id="fei8BmdaWQKJ3FNzEUvH-7" value="Wartortle" style="rounded=0;whiteSpace=wrap;html=1;" vertex="1" parent="WIyWlLk6GJQsqaUBKTNV-1">
          <mxGeometry x="40" y="240" width="120" height="60" as="geometry" />
        </mxCell>
        <mxCell id="fei8BmdaWQKJ3FNzEUvH-8" value="Squirtle" style="rounded=0;whiteSpace=wrap;html=1;" vertex="1" parent="WIyWlLk6GJQsqaUBKTNV-1">
          <mxGeometry x="40" y="320" width="120" height="60" as="geometry" />
        </mxCell>
        <mxCell id="fei8BmdaWQKJ3FNzEUvH-9" value="Pikachu" style="rounded=0;whiteSpace=wrap;html=1;" vertex="1" parent="WIyWlLk6GJQsqaUBKTNV-1">
          <mxGeometry x="340" y="300" width="120" height="60" as="geometry" />
        </mxCell>
        <mxCell id="fei8BmdaWQKJ3FNzEUvH-15" style="edgeStyle=orthogonalEdgeStyle;rounded=0;orthogonalLoop=1;jettySize=auto;html=1;exitX=0.75;exitY=1;exitDx=0;exitDy=0;entryX=0.75;entryY=0;entryDx=0;entryDy=0;" edge="1" parent="WIyWlLk6GJQsqaUBKTNV-1" source="fei8BmdaWQKJ3FNzEUvH-10" target="fei8BmdaWQKJ3FNzEUvH-11">
          <mxGeometry relative="1" as="geometry" />
        </mxCell>
        <mxCell id="fei8BmdaWQKJ3FNzEUvH-10" value="Charmeleon" style="rounded=0;whiteSpace=wrap;html=1;" vertex="1" parent="WIyWlLk6GJQsqaUBKTNV-1">
          <mxGeometry x="660" y="240" width="120" height="60" as="geometry" />
        </mxCell>
        <mxCell id="fei8BmdaWQKJ3FNzEUvH-11" value="Charmander" style="rounded=0;whiteSpace=wrap;html=1;" vertex="1" parent="WIyWlLk6GJQsqaUBKTNV-1">
          <mxGeometry x="660" y="320" width="120" height="60" as="geometry" />
        </mxCell>
      </root>
    </mxGraphModel>
  </diagram>
</mxfile>
